# WaveFront *.obj file (generated by CINEMA 4D)

mtllib ./Box.mtl

v -23 -1 -16.79999923706055
v -24.5 -1 -16.79999923706055
v -23 -1 16.79999923706055
v -24.5 -1 16.79999923706055
v -23 6 16.79999923706055
v -24.5 6 16.79999923706055
v -23 6 -16.79999923706055
v -24.5 6 -16.79999923706055
v -23 16.95000076293945 -16.79999923706055
v -24.5 16.95000076293945 -16.79999923706055
v -23 16.95000076293945 16.79999923706055
v -24.5 16.95000076293945 16.79999923706055
v -23 23.95000076293945 16.79999923706055
v -24.5 23.95000076293945 16.79999923706055
v -23 23.95000076293945 -16.79999923706055
v -24.5 23.95000076293945 -16.79999923706055
v -23 8 -16.79999923706055
v -24.5 8 -16.79999923706055
v -23 8 16.79999923706055
v -24.5 8 16.79999923706055
v -23 15 16.79999923706055
v -24.5 15 16.79999923706055
v -23 15 -16.79999923706055
v -24.5 15 -16.79999923706055
v 24.5 8 -16.79999923706055
v 23 8 -16.79999923706055
v 24.5 8 16.79999923706055
v 23 8 16.79999923706055
v 24.5 15 16.79999923706055
v 23 15 16.79999923706055
v 24.5 15 -16.79999923706055
v 23 15 -16.79999923706055
v 24.5 16.95000076293945 -16.79999923706055
v 23 16.95000076293945 -16.79999923706055
v 24.5 16.95000076293945 16.79999923706055
v 23 16.95000076293945 16.79999923706055
v 24.5 23.95000076293945 16.79999923706055
v 23 23.95000076293945 16.79999923706055
v 24.5 23.95000076293945 -16.79999923706055
v 23 23.95000076293945 -16.79999923706055
v 24.5 -1 -16.79999923706055
v 23 -1 -16.79999923706055
v 24.5 -1 16.79999923706055
v 23 -1 16.79999923706055
v 24.5 6 16.79999923706055
v 23 6 16.79999923706055
v 24.5 6 -16.79999923706055
v 23 6 -16.79999923706055
v -23 8 -15.30000019073486
v 23 8 -15.30000019073486
v 23 15 -15.30000019073486
v -23 15 -15.30000019073486
v -23 16.95000076293945 -15.30000019073486
v 23 16.95000076293945 -15.30000019073486
v 23 23.95000076293945 -15.30000019073486
v -23 23.95000076293945 -15.30000019073486
v -23 -1 -15.30000019073486
v 23 -1 -15.30000019073486
v 23 6 -15.30000019073486
v -23 6 -15.30000019073486
v -23 8 15.30000019073486
v 23 8 15.30000019073486
v 23 15 15.30000019073486
v -23 15 15.30000019073486
v -23 16.95000076293945 15.30000019073486
v 23 16.95000076293945 15.30000019073486
v 23 23.95000076293945 15.30000019073486
v -23 23.95000076293945 15.30000019073486
v -23 -1 15.30000019073486
v 23 -1 15.30000019073486
v 23 6 15.30000019073486
v -23 6 15.30000019073486
v 20 24 -12.30000019073486
v 20 24 -15.30000019073486
v 23 24 -12.30000019073486
v 23 24 -15.30000019073486
v 23 -1 -12.30000019073486
v 20 -1 -12.30000019073486
v 20 -1 -15.30000019073486
v 20 24 15.30000019073486
v 20 24 12.30000019073486
v 23 24 15.30000019073486
v 23 24 12.30000019073486
v 23 -1 12.30000019073486
v 20 -1 15.30000019073486
v 20 -1 12.30000019073486
v -23 24 15.30000019073486
v -23 24 12.30000019073486
v -20 24 15.30000019073486
v -20 24 12.30000019073486
v -20 -1 15.30000019073486
v -20 -1 12.30000019073486
v -23 -1 12.30000019073486
v -23 24 -12.30000019073486
v -23 24 -15.30000019073486
v -20 24 -12.30000019073486
v -20 24 -15.30000019073486
v -20 -1 -12.30000019073486
v -20 -1 -15.30000019073486
v -23 -1 -12.30000019073486
v 20 2 15.30000019073486
v 23 2 15.30000019073486
v 23 2 -15.30000019073486
v 20 2 -15.30000019073486
v -23 2 15.30000019073486
v -20 2 15.30000019073486
v -20 2 -15.30000019073486
v -23 2 -15.30000019073486
v -23 -1 -6.30000019073486
v -23 1 -6.30000019073486
v 23 -1 -6.30000019073486
v 23 1 -6.30000019073486
v 23 1 -15.30000019073486
v -23 1 -15.30000019073486
v -23 -1 5
v -23 1 5
v 23 -1 5
v 23 1 5
v 23 -1 -5
v 23 1 -5
v -23 -1 -5
v -23 1 -5
v -23 1 15.30000019073486
v 23 1 15.30000019073486
v 23 -1 6.30000019073486
v 23 1 6.30000019073486
v -23 -1 6.30000019073486
v -23 1 6.30000019073486
# 128 vertices

vn 0 -1 0
vn 0 0 1
vn 0 1 0
vn 0 0 -1
vn -1 0 0
vn 1 0 0
# 6 normals

vt 0 0 0
vt 0 1 0
vt 1 1 0
vt 1 0 0
# 4 texture coordinates

o Куб
usemtl default
f 3/4/1 4/3/1 2/2/1 1/1/1
f 5/4/2 6/3/2 4/2/2 3/1/2
f 7/4/3 8/3/3 6/2/3 5/1/3
f 1/4/4 2/3/4 8/2/4 7/1/4
f 4/4/5 6/3/5 8/2/5 2/1/5
f 5/4/6 3/3/6 1/2/6 7/1/6
f 11/4/1 12/3/1 10/2/1 9/1/1
f 13/4/2 14/3/2 12/2/2 11/1/2
f 15/4/3 16/3/3 14/2/3 13/1/3
f 9/4/4 10/3/4 16/2/4 15/1/4
f 12/4/5 14/3/5 16/2/5 10/1/5
f 13/4/6 11/3/6 9/2/6 15/1/6
f 19/4/1 20/3/1 18/2/1 17/1/1
f 21/4/2 22/3/2 20/2/2 19/1/2
f 23/4/3 24/3/3 22/2/3 21/1/3
f 17/4/4 18/3/4 24/2/4 23/1/4
f 20/4/5 22/3/5 24/2/5 18/1/5
f 21/4/6 19/3/6 17/2/6 23/1/6
f 27/4/1 28/3/1 26/2/1 25/1/1
f 29/4/2 30/3/2 28/2/2 27/1/2
f 31/4/3 32/3/3 30/2/3 29/1/3
f 25/4/4 26/3/4 32/2/4 31/1/4
f 28/4/5 30/3/5 32/2/5 26/1/5
f 29/4/6 27/3/6 25/2/6 31/1/6
f 43/4/1 44/3/1 42/2/1 41/1/1
f 45/4/2 46/3/2 44/2/2 43/1/2
f 47/4/3 48/3/3 46/2/3 45/1/3
f 41/4/4 42/3/4 48/2/4 47/1/4
f 44/4/5 46/3/5 48/2/5 42/1/5
f 45/4/6 43/3/6 41/2/6 47/1/6
f 26/4/1 50/3/1 49/2/1 17/1/1
f 32/4/6 51/3/6 50/2/6 26/1/6
f 23/4/3 52/3/3 51/2/3 32/1/3
f 17/4/5 49/3/5 52/2/5 23/1/5
f 50/4/2 51/3/2 52/2/2 49/1/2
f 32/4/4 26/3/4 17/2/4 23/1/4
f 34/4/1 54/3/1 53/2/1 9/1/1
f 40/4/6 55/3/6 54/2/6 34/1/6
f 15/4/3 56/3/3 55/2/3 40/1/3
f 9/4/5 53/3/5 56/2/5 15/1/5
f 54/4/2 55/3/2 56/2/2 53/1/2
f 40/4/4 34/3/4 9/2/4 15/1/4
f 42/4/1 58/3/1 57/2/1 1/1/1
f 48/4/6 59/3/6 58/2/6 42/1/6
f 7/4/3 60/3/3 59/2/3 48/1/3
f 1/4/5 57/3/5 60/2/5 7/1/5
f 58/4/2 59/3/2 60/2/2 57/1/2
f 48/4/4 42/3/4 1/2/4 7/1/4
f 62/4/1 28/3/1 19/2/1 61/1/1
f 63/4/6 30/3/6 28/2/6 62/1/6
f 64/4/3 21/3/3 30/2/3 63/1/3
f 61/4/5 19/3/5 21/2/5 64/1/5
f 28/4/2 30/3/2 21/2/2 19/1/2
f 63/4/4 62/3/4 61/2/4 64/1/4
f 66/4/1 36/3/1 11/2/1 65/1/1
f 67/4/6 38/3/6 36/2/6 66/1/6
f 68/4/3 13/3/3 38/2/3 67/1/3
f 65/4/5 11/3/5 13/2/5 68/1/5
f 36/4/2 38/3/2 13/2/2 11/1/2
f 67/4/4 66/3/4 65/2/4 68/1/4
f 70/4/1 44/3/1 3/2/1 69/1/1
f 71/4/6 46/3/6 44/2/6 70/1/6
f 72/4/3 5/3/3 46/2/3 71/1/3
f 69/4/5 3/3/5 5/2/5 72/1/5
f 44/4/2 46/3/2 5/2/2 3/1/2
f 71/4/4 70/3/4 69/2/4 72/1/4
f 75/4/3 76/3/3 74/2/3 73/1/3
f 77/4/6 58/3/6 76/2/6 75/1/6
f 78/4/1 79/3/1 58/2/1 77/1/1
f 73/4/5 74/3/5 79/2/5 78/1/5
f 76/4/4 58/3/4 79/2/4 74/1/4
f 77/4/2 75/3/2 73/2/2 78/1/2
f 82/4/3 83/3/3 81/2/3 80/1/3
f 70/4/6 84/3/6 83/2/6 82/1/6
f 85/4/1 86/3/1 84/2/1 70/1/1
f 80/4/5 81/3/5 86/2/5 85/1/5
f 83/4/4 84/3/4 86/2/4 81/1/4
f 70/4/2 82/3/2 80/2/2 85/1/2
f 89/4/3 90/3/3 88/2/3 87/1/3
f 91/4/6 92/3/6 90/2/6 89/1/6
f 69/4/1 93/3/1 92/2/1 91/1/1
f 87/4/5 88/3/5 93/2/5 69/1/5
f 90/4/4 92/3/4 93/2/4 88/1/4
f 91/4/2 89/3/2 87/2/2 69/1/2
f 96/4/3 97/3/3 95/2/3 94/1/3
f 98/4/6 99/3/6 97/2/6 96/1/6
f 100/4/1 57/3/1 99/2/1 98/1/1
f 94/4/5 95/3/5 57/2/5 100/1/5
f 97/4/4 99/3/4 57/2/4 95/1/4
f 98/4/2 96/3/2 94/2/2 100/1/2
f 70/4/2 102/3/2 101/2/2 85/1/2
f 58/4/6 103/3/6 102/2/6 70/1/6
f 79/4/4 104/3/4 103/2/4 58/1/4
f 85/4/5 101/3/5 104/2/5 79/1/5
f 102/4/3 103/3/3 104/2/3 101/1/3
f 58/4/1 70/3/1 85/2/1 79/1/1
f 91/4/2 106/3/2 105/2/2 69/1/2
f 99/4/6 107/3/6 106/2/6 91/1/6
f 57/4/4 108/3/4 107/2/4 99/1/4
f 69/4/5 105/3/5 108/2/5 57/1/5
f 106/4/3 107/3/3 108/2/3 105/1/3
f 99/4/1 91/3/1 69/2/1 57/1/1
f 111/4/2 112/3/2 110/2/2 109/1/2
f 58/4/6 113/3/6 112/2/6 111/1/6
f 57/4/4 114/3/4 113/2/4 58/1/4
f 109/4/5 110/3/5 114/2/5 57/1/5
f 112/4/3 113/3/3 114/2/3 110/1/3
f 58/4/1 111/3/1 109/2/1 57/1/1
f 117/4/2 118/3/2 116/2/2 115/1/2
f 119/4/6 120/3/6 118/2/6 117/1/6
f 121/4/4 122/3/4 120/2/4 119/1/4
f 115/4/5 116/3/5 122/2/5 121/1/5
f 118/4/3 120/3/3 122/2/3 116/1/3
f 119/4/1 117/3/1 115/2/1 121/1/1
f 70/4/2 124/3/2 123/2/2 69/1/2
f 125/4/6 126/3/6 124/2/6 70/1/6
f 127/4/4 128/3/4 126/2/4 125/1/4
f 69/4/5 123/3/5 128/2/5 127/1/5
f 124/4/3 126/3/3 128/2/3 123/1/3
f 125/4/1 70/3/1 69/2/1 127/1/1

usemtl Материал
f 35/4/1 36/3/1 34/2/1 33/1/1
f 37/4/2 38/3/2 36/2/2 35/1/2
f 39/4/3 40/3/3 38/2/3 37/1/3
f 33/4/4 34/3/4 40/2/4 39/1/4
f 36/4/5 38/3/5 40/2/5 34/1/5
f 37/4/6 35/3/6 33/2/6 39/1/6

# 0 vertex

# 0 normal

# 0 texture coordinate

o Куб.21
usemtl default
f 3/4/1 4/3/1 2/2/1 1/1/1
f 5/4/2 6/3/2 4/2/2 3/1/2
f 7/4/3 8/3/3 6/2/3 5/1/3
f 1/4/4 2/3/4 8/2/4 7/1/4
f 4/4/5 6/3/5 8/2/5 2/1/5
f 5/4/6 3/3/6 1/2/6 7/1/6

# 0 vertex

# 0 normal

# 0 texture coordinate

o Куб.20
usemtl default
f 11/4/1 12/3/1 10/2/1 9/1/1
f 13/4/2 14/3/2 12/2/2 11/1/2
f 15/4/3 16/3/3 14/2/3 13/1/3
f 9/4/4 10/3/4 16/2/4 15/1/4
f 12/4/5 14/3/5 16/2/5 10/1/5
f 13/4/6 11/3/6 9/2/6 15/1/6

# 0 vertex

# 0 normal

# 0 texture coordinate

o Куб.19
usemtl default
f 19/4/1 20/3/1 18/2/1 17/1/1
f 21/4/2 22/3/2 20/2/2 19/1/2
f 23/4/3 24/3/3 22/2/3 21/1/3
f 17/4/4 18/3/4 24/2/4 23/1/4
f 20/4/5 22/3/5 24/2/5 18/1/5
f 21/4/6 19/3/6 17/2/6 23/1/6

# 0 vertex

# 0 normal

# 0 texture coordinate

o Куб.18
usemtl default
f 27/4/1 28/3/1 26/2/1 25/1/1
f 29/4/2 30/3/2 28/2/2 27/1/2
f 31/4/3 32/3/3 30/2/3 29/1/3
f 25/4/4 26/3/4 32/2/4 31/1/4
f 28/4/5 30/3/5 32/2/5 26/1/5
f 29/4/6 27/3/6 25/2/6 31/1/6

# 0 vertex

# 0 normal

# 0 texture coordinate

o Куб.17
usemtl default
f 35/4/1 36/3/1 34/2/1 33/1/1
f 37/4/2 38/3/2 36/2/2 35/1/2
f 39/4/3 40/3/3 38/2/3 37/1/3
f 33/4/4 34/3/4 40/2/4 39/1/4
f 36/4/5 38/3/5 40/2/5 34/1/5
f 37/4/6 35/3/6 33/2/6 39/1/6

# 0 vertex

# 0 normal

# 0 texture coordinate

o Куб.16
usemtl default
f 43/4/1 44/3/1 42/2/1 41/1/1
f 45/4/2 46/3/2 44/2/2 43/1/2
f 47/4/3 48/3/3 46/2/3 45/1/3
f 41/4/4 42/3/4 48/2/4 47/1/4
f 44/4/5 46/3/5 48/2/5 42/1/5
f 45/4/6 43/3/6 41/2/6 47/1/6

# 0 vertex

# 0 normal

# 0 texture coordinate

o Куб.15
usemtl default
f 26/4/1 50/3/1 49/2/1 17/1/1
f 32/4/6 51/3/6 50/2/6 26/1/6
f 23/4/3 52/3/3 51/2/3 32/1/3
f 17/4/5 49/3/5 52/2/5 23/1/5
f 50/4/2 51/3/2 52/2/2 49/1/2
f 32/4/4 26/3/4 17/2/4 23/1/4

# 0 vertex

# 0 normal

# 0 texture coordinate

o Куб.14
usemtl default
f 34/4/1 54/3/1 53/2/1 9/1/1
f 40/4/6 55/3/6 54/2/6 34/1/6
f 15/4/3 56/3/3 55/2/3 40/1/3
f 9/4/5 53/3/5 56/2/5 15/1/5
f 54/4/2 55/3/2 56/2/2 53/1/2
f 40/4/4 34/3/4 9/2/4 15/1/4

# 0 vertex

# 0 normal

# 0 texture coordinate

o Куб.11
usemtl default
f 42/4/1 58/3/1 57/2/1 1/1/1
f 48/4/6 59/3/6 58/2/6 42/1/6
f 7/4/3 60/3/3 59/2/3 48/1/3
f 1/4/5 57/3/5 60/2/5 7/1/5
f 58/4/2 59/3/2 60/2/2 57/1/2
f 48/4/4 42/3/4 1/2/4 7/1/4

# 0 vertex

# 0 normal

# 0 texture coordinate

o Куб.14_1
usemtl default
f 62/4/1 28/3/1 19/2/1 61/1/1
f 63/4/6 30/3/6 28/2/6 62/1/6
f 64/4/3 21/3/3 30/2/3 63/1/3
f 61/4/5 19/3/5 21/2/5 64/1/5
f 28/4/2 30/3/2 21/2/2 19/1/2
f 63/4/4 62/3/4 61/2/4 64/1/4

# 0 vertex

# 0 normal

# 0 texture coordinate

o Куб.12
usemtl default
f 66/4/1 36/3/1 11/2/1 65/1/1
f 67/4/6 38/3/6 36/2/6 66/1/6
f 68/4/3 13/3/3 38/2/3 67/1/3
f 65/4/5 11/3/5 13/2/5 68/1/5
f 36/4/2 38/3/2 13/2/2 11/1/2
f 67/4/4 66/3/4 65/2/4 68/1/4

# 0 vertex

# 0 normal

# 0 texture coordinate

o Куб.10
usemtl default
f 70/4/1 44/3/1 3/2/1 69/1/1
f 71/4/6 46/3/6 44/2/6 70/1/6
f 72/4/3 5/3/3 46/2/3 71/1/3
f 69/4/5 3/3/5 5/2/5 72/1/5
f 44/4/2 46/3/2 5/2/2 3/1/2
f 71/4/4 70/3/4 69/2/4 72/1/4

# 0 vertex

# 0 normal

# 0 texture coordinate

o Куб.9
usemtl default
f 75/4/3 76/3/3 74/2/3 73/1/3
f 77/4/6 58/3/6 76/2/6 75/1/6
f 78/4/1 79/3/1 58/2/1 77/1/1
f 73/4/5 74/3/5 79/2/5 78/1/5
f 76/4/4 58/3/4 79/2/4 74/1/4
f 77/4/2 75/3/2 73/2/2 78/1/2

# 0 vertex

# 0 normal

# 0 texture coordinate

o Куб.8
usemtl default
f 82/4/3 83/3/3 81/2/3 80/1/3
f 70/4/6 84/3/6 83/2/6 82/1/6
f 85/4/1 86/3/1 84/2/1 70/1/1
f 80/4/5 81/3/5 86/2/5 85/1/5
f 83/4/4 84/3/4 86/2/4 81/1/4
f 70/4/2 82/3/2 80/2/2 85/1/2

# 0 vertex

# 0 normal

# 0 texture coordinate

o Куб.7
usemtl default
f 89/4/3 90/3/3 88/2/3 87/1/3
f 91/4/6 92/3/6 90/2/6 89/1/6
f 69/4/1 93/3/1 92/2/1 91/1/1
f 87/4/5 88/3/5 93/2/5 69/1/5
f 90/4/4 92/3/4 93/2/4 88/1/4
f 91/4/2 89/3/2 87/2/2 69/1/2

# 0 vertex

# 0 normal

# 0 texture coordinate

o Куб.6
usemtl default
f 96/4/3 97/3/3 95/2/3 94/1/3
f 98/4/6 99/3/6 97/2/6 96/1/6
f 100/4/1 57/3/1 99/2/1 98/1/1
f 94/4/5 95/3/5 57/2/5 100/1/5
f 97/4/4 99/3/4 57/2/4 95/1/4
f 98/4/2 96/3/2 94/2/2 100/1/2

# 0 vertex

# 0 normal

# 0 texture coordinate

o Куб.5
usemtl default
f 70/4/2 102/3/2 101/2/2 85/1/2
f 58/4/6 103/3/6 102/2/6 70/1/6
f 79/4/4 104/3/4 103/2/4 58/1/4
f 85/4/5 101/3/5 104/2/5 79/1/5
f 102/4/3 103/3/3 104/2/3 101/1/3
f 58/4/1 70/3/1 85/2/1 79/1/1

# 0 vertex

# 0 normal

# 0 texture coordinate

o Куб.4
usemtl default
f 91/4/2 106/3/2 105/2/2 69/1/2
f 99/4/6 107/3/6 106/2/6 91/1/6
f 57/4/4 108/3/4 107/2/4 99/1/4
f 69/4/5 105/3/5 108/2/5 57/1/5
f 106/4/3 107/3/3 108/2/3 105/1/3
f 99/4/1 91/3/1 69/2/1 57/1/1

# 0 vertex

# 0 normal

# 0 texture coordinate

o Куб.3
usemtl default
f 111/4/2 112/3/2 110/2/2 109/1/2
f 58/4/6 113/3/6 112/2/6 111/1/6
f 57/4/4 114/3/4 113/2/4 58/1/4
f 109/4/5 110/3/5 114/2/5 57/1/5
f 112/4/3 113/3/3 114/2/3 110/1/3
f 58/4/1 111/3/1 109/2/1 57/1/1

# 0 vertex

# 0 normal

# 0 texture coordinate

o Куб.2
usemtl default
f 117/4/2 118/3/2 116/2/2 115/1/2
f 119/4/6 120/3/6 118/2/6 117/1/6
f 121/4/4 122/3/4 120/2/4 119/1/4
f 115/4/5 116/3/5 122/2/5 121/1/5
f 118/4/3 120/3/3 122/2/3 116/1/3
f 119/4/1 117/3/1 115/2/1 121/1/1

# 0 vertex

# 0 normal

# 0 texture coordinate

o Куб.1
usemtl default
f 70/4/2 124/3/2 123/2/2 69/1/2
f 125/4/6 126/3/6 124/2/6 70/1/6
f 127/4/4 128/3/4 126/2/4 125/1/4
f 69/4/5 123/3/5 128/2/5 127/1/5
f 124/4/3 126/3/3 128/2/3 123/1/3
f 125/4/1 70/3/1 69/2/1 127/1/1

